HIERARCHY
ROOT Hips
{
	OFFSET 0.00000 0.00000 0.00000
	CHANNELS 6 Xposition Yposition Zposition Zrotation Yrotation Xrotation 
	JOINT LHipJoint
	{
		OFFSET 0 0 0
		CHANNELS 3 Zrotation Yrotation Xrotation
		JOINT LeftHip
		{
			OFFSET 2.36090 -1.39315 1.24752
			CHANNELS 3 Zrotation Yrotation Xrotation
			JOINT LeftKnee
			{
				OFFSET 2.06810 -5.68207 0.00000
				CHANNELS 3 Zrotation Yrotation Xrotation
				JOINT LeftAnkle
				{
					OFFSET 2.46631 -6.77613 0.00000
					CHANNELS 3 Zrotation Yrotation Xrotation
					JOINT LeftToe
					{
						OFFSET 0.26031 -0.71520 1.99545
						CHANNELS 3 Zrotation Yrotation Xrotation
						End Site
						{
							OFFSET 0.00000 -0.00000 1.05957
						}
					}
				}
			}
		}
	}
	JOINT RHipJoint
	{
		OFFSET 0 0 0
		CHANNELS 3 Zrotation Yrotation Xrotation
		JOINT RightHip
		{
			OFFSET -2.25243 -1.39315 1.24752
			CHANNELS 3 Zrotation Yrotation Xrotation
			JOINT RightKnee
			{
				OFFSET -2.17343 -5.97145 0.00000
				CHANNELS 3 Zrotation Yrotation Xrotation
				JOINT RightAnkle
				{
					OFFSET -2.52372 -6.93386 0.00000
					CHANNELS 3 Zrotation Yrotation Xrotation
					JOINT RightToe
					{
						OFFSET -0.22538 -0.61923 2.11447
						CHANNELS 3 Zrotation Yrotation Xrotation
						End Site
						{
							OFFSET -0.00000 -0.00000 1.10506
						}
					}
				}
			}
		}
	}
	JOINT lowerback
	{
		OFFSET 0 0 0
		CHANNELS 3 Zrotation Yrotation Xrotation
		JOINT Chest
		{
			OFFSET 0.01594 2.13103 0.08007
			CHANNELS 3 Zrotation Yrotation Xrotation
			JOINT Chest2
			{
				OFFSET 0.01393 2.09723 0.18338
				CHANNELS 3 Zrotation Yrotation Xrotation
				JOINT lowerneck
				{
					OFFSET 0 0 0
					CHANNELS 3 Zrotation Yrotation Xrotation
					JOINT Neck
					{
						OFFSET 0.05351 1.38915 0.32494
						CHANNELS 3 Zrotation Yrotation Xrotation
						JOINT Head
						{
							OFFSET 0.00711 1.45992 -0.21666
							CHANNELS 3 Zrotation Yrotation Xrotation
							End Site
							{
								OFFSET -0.00433 1.47702 -0.11056
							}
						}
					}
				}
				JOINT LeftCollar
				{
					OFFSET 0 0 0
					CHANNELS 3 Zrotation Yrotation Xrotation
					JOINT LeftShoulder
					{
						OFFSET 2.87198 0.92249 0.11132
CHANNELS 3 Zrotation Xrotation Yrotation
						JOINT LeftElbow
						{
OFFSET 0 -5.527310 0.000000
CHANNELS 3 Zrotation Xrotation Yrotation
							JOINT LeftWrist
							{
OFFSET 0 -3.110590 0.000000
CHANNELS 3 Zrotation Xrotation Yrotation
								JOINT lhand
								{
									OFFSET 0 0 0
CHANNELS 3 Zrotation Xrotation Yrotation
									JOINT LFingers
									{
OFFSET 0 -0.419630 0.000000
CHANNELS 3 Zrotation Xrotation Yrotation
										End Site
										{
OFFSET 0 -0.338310 0.000000
										}
									}
								}
								JOINT LThumb
								{
OFFSET 0 0.000000 0.000000
CHANNELS 3 Zrotation Xrotation Yrotation
									End Site
									{
OFFSET 0 -0.343480 0.343480
									}
								}
							}
						}
					}
				}
				JOINT RightCollar
				{
					OFFSET 0 0 0
					CHANNELS 3 Zrotation Yrotation Xrotation
					JOINT RightShoulder
					{
						OFFSET -2.94710 0.68072 0.32187
CHANNELS 3 Zrotation Xrotation Yrotation
						JOINT RightElbow
						{
OFFSET 0 -5.253960 -0.000000
CHANNELS 3 Zrotation Xrotation Yrotation
							JOINT RightWrist
							{
OFFSET 0 -3.105670 0.000000
CHANNELS 3 Zrotation Xrotation Yrotation
								JOINT rhand
								{
									OFFSET 0 0 0
CHANNELS 3 Zrotation Xrotation Yrotation
									JOINT RFingers
									{
OFFSET 0 -0.498680 0.000000
CHANNELS 3 Zrotation Xrotation Yrotation
										End Site
										{
OFFSET 0 -0.402040 0.000000
										}
									}
								}
								JOINT RThumb
								{
OFFSET 0 0.000000 0.000000
CHANNELS 3 Zrotation Xrotation Yrotation
									End Site
									{
OFFSET 0 -0.408180 0.408180
									}
								}
							}
						}
					}
				}
			}
		}
	}
}
MOTION
Frames: 4
Frame Time: 0.008333333333333333
-5.144365 15.894357 -25.067426 -182.653234 -47.439571 199.601686 0.000000 0.000000 0.000000 -9.412109 -37.858981 -25.829337 3.202410 11.015775 32.332958 -0.027784 -18.364003 -12.662964 2.048849 -8.966998 -25.692148 0.000000 0.000000 0.000000 -11.538247 41.824086 -38.306897 -4.215883 -12.442296 37.315048 0.819441 23.366964 -9.918331 -0.267037 3.322531 -9.178269 2.055271 2.172403 -14.681673 -2.098008 2.249858 -5.203706 -2.988781 0.913924 2.891366 17.664046 15.843247 -15.715531 -12.659244 21.319198 26.633023 -3.742823 9.327730 15.377440 0.000000 0.000000 0.000000 29.462738 -19.562044 -59.051012 36.419827 -45.799744 15.822811 38.058453 -50.510725 -18.302900 0.000000 0.000000 0.000000 -7.125000 0.000000 0.000000 10.390662 52.470975 -1.927485 0.000000 0.000000 0.000000 -21.765536 -16.655537 36.529182 -35.775761 -45.358175 -15.362742 -35.929394 -7.712781 41.077529 0.000000 0.000000 0.000000 7.125000 0.000000 0.000000 0.954177 77.087364 -0.716866
-5.013531 15.886366 -25.305046 -182.485710 -50.698570 199.345723 0.000000 0.000000 0.000000 -7.807808 -39.074138 -25.881494 3.185713 10.989787 32.245470 -0.095015 -19.290102 -12.740145 2.128449 -9.128565 -26.198391 0.000000 0.000000 0.000000 -7.843527 39.574773 -35.662237 -4.129688 -12.331028 36.913333 0.173140 21.592413 -13.848922 -0.493648 4.491539 -12.465985 2.688235 2.440970 -14.768973 -2.279428 2.530765 -5.253860 -3.488297 1.053266 2.938280 18.857386 16.537378 -14.166147 -13.152542 22.361796 25.584143 -3.903291 9.948759 15.027907 0.000000 0.000000 0.000000 29.760540 -19.874898 -59.735089 36.319655 -45.731758 15.750991 38.284705 -50.473395 -18.311134 0.000000 0.000000 0.000000 -7.125000 0.000000 0.000000 10.637533 52.529954 -1.989617 0.000000 0.000000 0.000000 -21.290477 -16.206022 35.984237 -35.399359 -45.095098 -15.095498 -35.862290 -7.554998 40.891295 0.000000 0.000000 0.000000 7.125000 0.000000 0.000000 0.836770 76.875904 -0.624996
-4.874289 15.898647 -25.541888 -182.272439 -53.802561 199.103092 0.000000 0.000000 0.000000 -6.130902 -40.126759 -25.877875 3.079865 10.823209 31.686023 -0.185208 -20.042426 -12.521424 2.221663 -9.313307 -26.780301 0.000000 0.000000 0.000000 -4.819438 38.530947 -33.407797 -4.074391 -12.258732 36.653357 -0.566052 18.167838 -17.449866 -0.888667 6.008216 -16.808463 3.145493 2.704438 -14.901637 -2.381387 2.829920 -5.235623 -3.798081 1.208073 3.078187 19.902968 17.264780 -12.829262 -13.619857 23.487736 24.602906 -3.994793 10.579666 14.771146 0.000000 0.000000 0.000000 30.193461 -20.167647 -60.196258 36.500890 -45.854574 15.880861 38.574417 -50.495291 -18.348021 0.000000 0.000000 0.000000 -7.125000 0.000000 0.000000 10.955268 52.637426 -2.079203 0.000000 0.000000 0.000000 -20.924963 -15.976156 35.332888 -34.968631 -44.789674 -14.791327 -35.611644 -7.549118 40.587665 0.000000 0.000000 0.000000 7.125000 0.000000 0.000000 0.937486 76.478986 -0.692249
-4.723183 15.924508 -25.778675 -181.903366 -56.707329 198.856237 0.000000 0.000000 0.000000 -4.249626 -40.981736 -26.126735 2.941622 10.599853 30.941972 -0.272683 -20.504739 -12.121503 2.431394 -9.711254 -28.047340 0.000000 0.000000 0.000000 -2.629354 39.305646 -31.822189 -4.150248 -12.357615 37.009276 -1.053003 13.916000 -19.460469 -0.948327 6.201642 -17.370660 3.481067 2.968939 -15.036541 -2.401941 3.145130 -5.189167 -3.947494 1.374112 3.245422 20.478711 17.999726 -11.941238 -13.807566 24.613445 23.851215 -3.883418 11.167452 14.605948 0.000000 0.000000 0.000000 30.444627 -20.504726 -60.330882 36.623230 -45.937031 15.968751 39.046552 -50.217781 -18.483337 0.000000 0.000000 0.000000 -7.125000 0.000000 0.000000 11.479452 52.904235 -2.256447 0.000000 0.000000 0.000000 -20.494352 -15.881768 34.516449 -34.583513 -44.512344 -14.520618 -35.032322 -7.701444 40.121280 0.000000 0.000000 0.000000 7.125000 0.000000 0.000000 1.468675 75.799497 -1.063090
